<svg xmlns="http://www.w3.org/2000/svg" width="160" height="80" viewBox="0 0 160 80">
  <title>RPGSmith Logo</title>
  <g>
    <polygon points="72.08 29.83 88.08 20.64 104.08 29.83 104.08 48.21 88.08 57.4 72.08 48.21 72.08 29.83" style="fill: #231f20"/>
    <path d="M71.94,79.38a22,22,0,0,1-5.23.62,17,17,0,0,1-7.46-1.65,27.36,27.36,0,0,1-6.32-4.23,41.46,41.46,0,0,1-5.39-5.82q-2.49-3.25-4.66-6.44T38,55.16a38.89,38.89,0,0,0-5.44-5.77,9.13,9.13,0,0,0-4.77-2.11,40.71,40.71,0,0,0-5.39-.36H20.08q-1.14,0-2.28.1v19.9a10.57,10.57,0,0,0,2.54,7.16A9.75,9.75,0,0,0,27,77.42v.82q-3.21-.31-6.42-.52t-6.42-.21q-3.21,0-6.32.26t-6.32.67c-.21.07-.35,0-.41-.26a.47.47,0,0,1,.21-.57,12.21,12.21,0,0,0,5-4.17,10.36,10.36,0,0,0,2-6.13V11.44A8,8,0,0,0,5.93,5.67,12,12,0,0,0,.29,2.37.34.34,0,0,1,0,2a.33.33,0,0,1,.36-.31h2q1.55,0,3.11.05t3,.15q3.11.31,6.22.31,3.32,0,6.74-.31,1.76-.1,3.37-.15t3.37-.05a35.13,35.13,0,0,1,8.5,1,22.94,22.94,0,0,1,7.41,3.25,16.72,16.72,0,0,1,5.23,5.72,17.26,17.26,0,0,1,2,8.56,21.45,21.45,0,0,1-1,6.55A32.36,32.36,0,0,1,47.49,33a37.31,37.31,0,0,1-3.94,5.62A61.38,61.38,0,0,1,39,43.4q1.45,1.65,3.42,4.33t4,5.46q3.11,4.23,6.53,8.66a64.24,64.24,0,0,0,7.2,7.94,33,33,0,0,0,7.88,5.52,15.07,15.07,0,0,0,8.55,1.49l.21.82A25.4,25.4,0,0,1,71.94,79.38ZM40.44,18.15a22.34,22.34,0,0,0-3.21-6.7A17.15,17.15,0,0,0,32,6.6a13.89,13.89,0,0,0-7.25-1.86A23.41,23.41,0,0,0,21.27,5a16.79,16.79,0,0,0-3.37.88V40.93a44.81,44.81,0,0,0,4.82.57q2.43.15,4.71.15,7.87,0,11-4.33t3.11-11.75A26.26,26.26,0,0,0,40.44,18.15Z" transform="translate(-0.02 0)" style="fill: #d15c27"/>
    <path d="M157.43,67.17A25.89,25.89,0,0,1,150.85,74,31.1,31.1,0,0,1,142,78.45,30,30,0,0,1,132.87,80a22.37,22.37,0,0,1-4.46-.46A13.62,13.62,0,0,1,124.27,78a9.48,9.48,0,0,1-3.06-2.78A7.27,7.27,0,0,1,120,70.93a16.16,16.16,0,0,1,.36-3.51q.36-1.65.78-3.2.21-.82.36-1.7c.1-.58.22-1.15.36-1.7a.38.38,0,0,1,.47-.26c.24,0,.36.15.36.36v1.13a14,14,0,0,0,1.09,5.67,11.14,11.14,0,0,0,3.06,4.12,13.94,13.94,0,0,0,4.56,2.53,17.65,17.65,0,0,0,5.7.88,17.76,17.76,0,0,0,10.16-3.35A13.36,13.36,0,0,0,150.85,68a9.69,9.69,0,0,0,1.4-5.1,12.37,12.37,0,0,0-1.3-5.31,28.38,28.38,0,0,0-3.42-5.41,61.82,61.82,0,0,0-4.82-5.36q-2.7-2.68-5.49-5.26-2.9-2.78-5.8-5.62a53.15,53.15,0,0,1-5.18-5.82A33.44,33.44,0,0,1,122.51,24a14.45,14.45,0,0,1-1.45-6.19,12.71,12.71,0,0,1,2.7-8.14,21.64,21.64,0,0,1,6.63-5.57A31,31,0,0,1,138.93,1a41.33,41.33,0,0,1,8.55-1,37.42,37.42,0,0,1,10.16,1.34c.21,0,.31.14.31.41q-.31,3.3-.67,6.6t-.88,6.6a1.13,1.13,0,0,1-.05.36,1.13,1.13,0,0,0-.05.36c0,.21-.12.33-.36.36a.38.38,0,0,1-.47-.26,19,19,0,0,0-1.61-4.64,14.39,14.39,0,0,0-2.69-3.76,13,13,0,0,0-3.73-2.58,11.14,11.14,0,0,0-4.71-1,13.47,13.47,0,0,0-5,.93,12.74,12.74,0,0,0-4,2.53A11.48,11.48,0,0,0,131,11.13a12.27,12.27,0,0,0-1,4.95,11.63,11.63,0,0,0,1.19,5.21A24.22,24.22,0,0,0,134.27,26a39.11,39.11,0,0,0,4.46,4.53q2.54,2.22,5.23,4.38,2.9,2.47,5.8,5a44.24,44.24,0,0,1,5.18,5.31,25.64,25.64,0,0,1,3.68,6,17.3,17.3,0,0,1,1.4,7A16,16,0,0,1,157.43,67.17Z" transform="translate(-0.02 0)" style="fill: #231f20"/>
  </g>
</svg>
