<?xml version="1.0" standalone="no"?>
<!DOCTYPE svg PUBLIC "-//W3C//DTD SVG 20010904//EN"
 "http://www.w3.org/TR/2001/REC-SVG-20010904/DTD/svg10.dtd">
<svg version="1.0" xmlns="http://www.w3.org/2000/svg"
 width="16.000000pt" height="16.000000pt" viewBox="0 0 16.000000 16.000000"
 preserveAspectRatio="xMidYMid meet">
<metadata>
Created by potrace 1.11, written by Peter Selinger 2001-2013
</metadata>
<g transform="translate(0.000000,16.000000) scale(0.006154,-0.006154)"
fill="#000000" stroke="none">
<path d="M2038 1845 c-174 -44 -268 -154 -239 -278 18 -80 56 -130 225 -300
188 -189 211 -226 207 -331 -1 -40 -82 -120 -136 -135 -127 -35 -246 20 -275
129 -6 21 -10 42 -9 47 1 4 0 13 -1 18 -4 20 -29 -101 -30 -143 0 -37 6 -50
33 -77 43 -43 123 -62 199 -47 203 40 328 158 328 306 -1 113 -42 174 -219
325 -162 138 -201 192 -201 276 0 125 128 209 244 161 38 -16 92 -77 107 -123
6 -18 14 -33 18 -33 5 0 12 45 17 100 8 85 7 101 -6 106 -33 14 -206 13 -262
-1z"/>
<path d="M268 1833 c16 -6 43 -28 60 -48 l32 -36 0 -435 c0 -421 -1 -438 -21
-473 -11 -20 -33 -45 -48 -56 l-29 -20 172 0 c167 0 171 0 136 16 -21 10 -47
33 -61 55 -23 37 -24 47 -24 204 l0 165 65 3 c130 6 161 -20 360 -298 47 -66
121 -129 183 -155 43 -18 120 -19 183 -4 54 14 57 24 6 24 -96 1 -211 100
-383 330 -57 77 -105 143 -107 146 -1 3 13 22 33 43 160 170 179 388 43 486
-71 51 -118 59 -386 62 -196 2 -238 1 -214 -9z m408 -42 c52 -24 109 -90 134
-158 22 -60 27 -164 9 -226 -14 -50 -61 -103 -107 -118 -38 -13 -193 -16 -212
-4 -6 4 -10 100 -10 260 0 287 -9 262 90 264 34 0 71 -7 96 -18z"/>
<path d="M1283 1492 l-113 -67 0 -130 1 -130 108 -62 c59 -35 114 -63 122 -63
8 0 61 29 119 63 l105 63 2 129 3 130 -112 65 c-62 36 -115 66 -118 67 -3 0
-56 -29 -117 -65z"/>
</g>
</svg>
